<svg width="24" height="24" viewBox="0 0 24 24" fill="none">
<path fill-rule="evenodd" clip-rule="evenodd" d="M9.46967 6.46967C9.76256 6.17678 10.2374 6.17678 10.5303 6.46967C10.8232 6.76256 10.8232 7.23744 10.5303 7.53033L6.76191 11.2987L19 11.25C19.4142 11.25 19.75 11.5858 19.75 12C19.75 12.4142 19.4142 12.75 19 12.75H6.81066L10.5303 16.4697C10.8232 16.7626 10.8232 17.2374 10.5303 17.5303C10.2374 17.8232 9.76256 17.8232 9.46967 17.5303L4.46967 12.5303C4.39776 12.4584 4.34351 12.3755 4.30691 12.2871M4.30724 11.7121C4.34383 11.624 4.39798 11.5414 4.46967 11.4697L9.46967 6.46967M4.30678 12.2868C4.27019 12.1984 4.25 12.1016 4.25 12C4.25 11.898 4.27036 11.8008 4.30724 11.7121" fill="#000"/>
</svg>
